<svg width="55" height="55" viewBox="0 0 55 55" fill="none" xmlns="http://www.w3.org/2000/svg">
<g id="verify_15219923 1">
<g id="Group">
<path id="Vector" d="M19.9373 52.7083C19.0207 52.7083 18.104 52.4792 17.1873 52.25C15.5832 51.5625 14.2082 50.1875 13.5207 48.5833L11.9165 44.6875C11.6873 44 11.229 43.5417 10.5415 43.3125L6.64567 41.7083C5.0415 41.0208 3.6665 39.6458 2.979 38.0417C2.2915 36.2083 2.2915 34.375 2.979 32.7708L4.58317 28.4167C4.81234 27.7292 4.81234 27.2708 4.58317 26.5833L2.74984 22.6875C2.52067 21.7708 2.2915 20.8542 2.2915 19.9375C2.2915 19.0208 2.52067 18.1042 2.74984 17.1875C3.20817 16.2708 3.6665 15.5833 4.354 14.8958C5.0415 14.2083 5.729 13.75 6.64567 13.2917L10.5415 11.6875C11.229 11.4583 11.6873 11 11.9165 10.3125L13.5207 6.41667C14.2082 4.8125 15.5832 3.4375 17.1873 2.75C18.7915 2.0625 20.854 2.0625 22.4582 2.75L26.5832 4.58333C27.2707 4.8125 27.729 4.8125 28.4165 4.58333L32.3123 2.97917C33.9165 2.29167 35.979 2.29167 37.5832 2.97917C39.1873 3.66667 40.5623 5.04167 41.2498 6.64583L42.854 10.5417C43.0832 11.2292 43.5415 11.6875 44.229 11.9167L48.1248 13.5208C49.729 14.2083 51.104 15.5833 51.7915 17.1875C52.479 18.7917 52.479 20.8542 51.7915 22.4583L50.4165 26.5833C50.1873 27.2708 50.1873 27.7292 50.4165 28.4167L52.0207 32.3125C52.479 33.2292 52.479 34.1458 52.479 35.0625C52.479 35.9792 52.2498 36.8958 52.0207 37.8125C51.5623 38.7292 51.104 39.4167 50.4165 40.1042C49.729 40.7917 49.0415 41.25 48.1248 41.7083L44.229 43.3125C43.5415 43.5417 43.0832 44 42.854 44.6875L41.2498 48.5833C40.5623 50.1875 39.1873 51.5625 37.5832 52.25C35.979 52.9375 33.9165 52.9375 32.3123 52.25L28.4165 50.4167C27.729 50.1875 27.2707 50.1875 26.5832 50.4167L22.6873 52.0208C21.7707 52.4792 20.854 52.7083 19.9373 52.7083ZM19.9373 6.875C19.7082 6.875 19.2498 6.875 19.0207 7.10417C18.5623 7.33333 18.104 7.79167 17.6457 8.25L16.0415 12.375C15.354 13.9792 13.979 15.3542 12.3748 16.0417L8.24984 17.6458C8.02067 17.875 7.7915 18.1042 7.56234 18.3333C7.33317 18.5625 7.104 18.7917 7.104 19.0208C6.87484 19.25 6.87484 19.7083 6.87484 19.9375C6.87484 20.1667 6.87484 20.625 7.104 20.8542L8.70817 24.75C9.39567 26.3542 9.39567 28.4167 8.70817 30.0208L7.104 33.9167C6.87484 34.6042 6.87484 35.0625 7.104 35.75C7.33317 36.2083 7.7915 36.8958 8.479 37.125L12.3748 38.9583C13.979 39.6458 15.354 41.0208 16.0415 42.625L17.6457 46.5208C17.8748 47.2083 18.3332 47.6667 19.0207 47.8958C19.7082 48.125 20.1665 48.125 20.854 47.8958L24.7498 46.2917C26.354 45.6042 28.4165 45.6042 30.0207 46.2917L33.9165 47.8958C34.604 48.125 35.0623 48.125 35.7498 47.8958C36.4373 47.6667 36.8957 47.2083 37.1248 46.5208L38.729 42.625C39.4165 40.7917 40.7915 39.6458 42.3957 38.9583L46.2915 37.3542C46.5207 37.125 46.7498 37.125 46.979 36.8958C47.2082 36.6667 47.4373 36.4375 47.4373 36.2083C47.6665 35.9792 47.6665 35.5208 47.6665 35.2917C47.6665 35.0625 47.6665 34.6042 47.4373 34.375L45.8332 30.4792C45.1457 28.875 45.1457 26.8125 45.8332 25.2083L47.4373 21.3125C47.6665 20.625 47.6665 20.1667 47.4373 19.4792C47.2082 18.7917 46.7498 18.3333 46.0623 18.1042L42.6248 16.0417C41.0207 15.3542 39.6457 13.9792 38.9582 12.375C38.9582 12.375 38.9582 12.375 38.9582 12.1458L37.354 8.25C37.1248 7.5625 36.6665 7.10417 35.979 6.875C35.2915 6.64583 34.8332 6.64583 34.1457 6.875L30.2498 8.47917C28.6457 9.16667 26.5832 9.16667 24.979 8.47917L20.854 7.10417C20.6248 6.875 20.1665 6.875 19.9373 6.875ZM25.2082 34.375C24.5207 34.375 24.0623 34.1458 23.604 33.6875L19.0207 29.1042C18.104 28.1875 18.104 26.8125 19.0207 25.8958C19.9373 24.9792 21.3123 24.9792 22.229 25.8958L25.2082 28.875L33.9165 20.1667C34.8332 19.25 36.2082 19.25 37.1248 20.1667C38.0415 21.0833 38.0415 22.4583 37.1248 23.375L26.8123 33.6875C26.354 34.1458 25.8957 34.375 25.2082 34.375Z" fill="#D59483"/>
</g>
</g>
</svg>
