<svg width="23" height="23" viewBox="0 0 23 23" fill="none" xmlns="http://www.w3.org/2000/svg">
<g id="detail-2-svgrepo-com 1">
<path id="Vector" d="M4.32236 4.67764C4.50208 4.49792 4.74583 4.39695 5 4.39695C5.25417 4.39695 5.49792 4.49792 5.67764 4.67764L17.8752 16.8752C18.055 17.055 18.1559 17.2987 18.1559 17.5529C18.1559 17.807 18.055 18.0508 17.8752 18.2305C17.6955 18.4102 17.4518 18.5112 17.1976 18.5112C16.9434 18.5112 16.6997 18.4102 16.5199 18.2305L4.32236 6.03293C4.14263 5.85321 4.04167 5.60945 4.04167 5.35529C4.04167 5.10112 4.14263 4.85737 4.32236 4.67764Z" fill="#2D1C06"/>
<path id="Vector_2" d="M4.67764 16.3224L16.8565 4.50296C17.0362 4.32324 17.28 4.22227 17.5341 4.22227C17.7883 4.22227 18.032 4.32324 18.2118 4.50296C18.3915 4.68269 18.4925 4.92644 18.4925 5.18061C18.4925 5.43477 18.3915 5.67853 18.2118 5.85825L6.03293 17.6776C5.85321 17.8574 5.60945 17.9583 5.35529 17.9583C5.10112 17.9583 4.85737 17.8574 4.67764 17.6776C4.49792 17.4979 4.39695 17.2542 4.39695 17C4.39695 16.7458 4.49792 16.5021 4.67764 16.3224Z" fill="#2D1C06"/>
</g>
</svg>
