<svg width="23" height="23" viewBox="0 0 23 23" fill="none" xmlns="http://www.w3.org/2000/svg">
<g id="detail-2-svgrepo-com 1">
<path id="Vector" d="M1.91699 3.83333C1.91699 3.57917 2.01796 3.33541 2.19768 3.15569C2.3774 2.97597 2.62116 2.875 2.87533 2.875H20.1253C20.3795 2.875 20.6232 2.97597 20.803 3.15569C20.9827 3.33541 21.0837 3.57917 21.0837 3.83333C21.0837 4.0875 20.9827 4.33125 20.803 4.51098C20.6232 4.6907 20.3795 4.79167 20.1253 4.79167H2.87533C2.62116 4.79167 2.3774 4.6907 2.19768 4.51098C2.01796 4.33125 1.91699 4.0875 1.91699 3.83333ZM2.87533 12.4583H20.1253C20.3795 12.4583 20.6232 12.3574 20.803 12.1776C20.9827 11.9979 21.0837 11.7542 21.0837 11.5C21.0837 11.2458 20.9827 11.0021 20.803 10.8224C20.6232 10.6426 20.3795 10.5417 20.1253 10.5417H2.87533C2.62116 10.5417 2.3774 10.6426 2.19768 10.8224C2.01796 11.0021 1.91699 11.2458 1.91699 11.5C1.91699 11.7542 2.01796 11.9979 2.19768 12.1776C2.3774 12.3574 2.62116 12.4583 2.87533 12.4583ZM20.1253 18.2083L3.15601 17.9542C2.90185 17.9542 2.65809 18.0551 2.47837 18.2349C2.29865 18.4146 2.19768 18.6583 2.19768 18.9125C2.19768 19.1667 2.29865 19.4104 2.47837 19.5901C2.65809 19.7699 2.90185 19.8708 3.15601 19.8708L20.1253 20.125C20.3795 20.125 20.6232 20.024 20.803 19.8443C20.9827 19.6646 21.0837 19.4208 21.0837 19.1667C21.0837 18.9125 20.9827 18.6687 20.803 18.489C20.6232 18.3093 20.3795 18.2083 20.1253 18.2083Z" fill="#2D1C06"/>
</g>
</svg>
