<svg width="25" height="25" viewBox="0 0 25 25" fill="none" xmlns="http://www.w3.org/2000/svg">
<g id="calender_11310778 1">
<g id="Group">
<path id="Vector" fill-rule="evenodd" clip-rule="evenodd" d="M1.82275 9.896C1.82275 9.46453 2.17254 9.11475 2.604 9.11475H22.3957C22.8271 9.11475 23.1769 9.46453 23.1769 9.896V20.8335C23.1769 21.8403 22.3608 22.6564 21.354 22.6564H3.64567C2.63891 22.6564 1.82275 21.8403 1.82275 20.8335V9.896ZM3.38525 10.6772V20.8335C3.38525 20.9774 3.50184 21.0939 3.64567 21.0939H21.354C21.4979 21.0939 21.6144 20.9774 21.6144 20.8335V10.6772H3.38525Z" fill="black"/>
<path id="Vector_2" fill-rule="evenodd" clip-rule="evenodd" d="M3.64567 4.42725C3.50185 4.42725 3.38525 4.54384 3.38525 4.68766V9.11475H21.6144V4.68766C21.6144 4.54383 21.4979 4.42725 21.354 4.42725H3.64567ZM1.82275 4.68766C1.82275 3.68089 2.6389 2.86475 3.64567 2.86475H21.354C22.3608 2.86475 23.1769 3.6809 23.1769 4.68766V9.896C23.1769 10.3275 22.8271 10.6772 22.3957 10.6772H2.604C2.17254 10.6772 1.82275 10.3275 1.82275 9.896V4.68766Z" fill="black"/>
<path id="Vector_3" fill-rule="evenodd" clip-rule="evenodd" d="M8.33301 1.30225C8.76448 1.30225 9.11426 1.65203 9.11426 2.0835V6.25016C9.11426 6.68163 8.76448 7.03141 8.33301 7.03141C7.90154 7.03141 7.55176 6.68163 7.55176 6.25016V2.0835C7.55176 1.65203 7.90154 1.30225 8.33301 1.30225Z" fill="black"/>
<path id="Vector_4" fill-rule="evenodd" clip-rule="evenodd" d="M16.6665 1.30225C17.098 1.30225 17.4478 1.65203 17.4478 2.0835V6.25016C17.4478 6.68163 17.098 7.03141 16.6665 7.03141C16.235 7.03141 15.8853 6.68163 15.8853 6.25016V2.0835C15.8853 1.65203 16.235 1.30225 16.6665 1.30225Z" fill="black"/>
<path id="Vector_5" fill-rule="evenodd" clip-rule="evenodd" d="M13.8018 17.7085C13.8018 17.277 14.1515 16.9272 14.583 16.9272H17.708C18.1395 16.9272 18.4893 17.277 18.4893 17.7085C18.4893 18.14 18.1395 18.4897 17.708 18.4897H14.583C14.1515 18.4897 13.8018 18.14 13.8018 17.7085Z" fill="black"/>
<path id="Vector_6" fill-rule="evenodd" clip-rule="evenodd" d="M6.51025 17.7085C6.51025 17.277 6.86004 16.9272 7.2915 16.9272H10.4165C10.848 16.9272 11.1978 17.277 11.1978 17.7085C11.1978 18.14 10.848 18.4897 10.4165 18.4897H7.2915C6.86004 18.4897 6.51025 18.14 6.51025 17.7085Z" fill="black"/>
<path id="Vector_7" fill-rule="evenodd" clip-rule="evenodd" d="M13.8018 13.542C13.8018 13.1105 14.1515 12.7607 14.583 12.7607H17.708C18.1395 12.7607 18.4893 13.1105 18.4893 13.542C18.4893 13.9735 18.1395 14.3232 17.708 14.3232H14.583C14.1515 14.3232 13.8018 13.9735 13.8018 13.542Z" fill="black"/>
<path id="Vector_8" fill-rule="evenodd" clip-rule="evenodd" d="M6.51025 13.542C6.51025 13.1105 6.86004 12.7607 7.2915 12.7607H10.4165C10.848 12.7607 11.1978 13.1105 11.1978 13.542C11.1978 13.9735 10.848 14.3232 10.4165 14.3232H7.2915C6.86004 14.3232 6.51025 13.9735 6.51025 13.542Z" fill="black"/>
</g>
</g>
</svg>
