<svg width="20" height="20" viewBox="0 0 20 20" fill="none" xmlns="http://www.w3.org/2000/svg">
<g id="email_4546924 1">
<path id="Vector" d="M17.8516 2.38281H2.14844C1.57883 2.38343 1.03272 2.60998 0.629948 3.01276C0.227172 3.41554 0.000620379 3.96164 0 4.53125V15.4688C0.000620379 16.0384 0.227172 16.5845 0.629948 16.9872C1.03272 17.39 1.57883 17.6166 2.14844 17.6172H17.8516C18.4212 17.6166 18.9673 17.39 19.3701 16.9872C19.7728 16.5845 19.9994 16.0384 20 15.4688V4.53125C19.9994 3.96164 19.7728 3.41554 19.3701 3.01276C18.9673 2.60998 18.4212 2.38343 17.8516 2.38281ZM18.8281 4.53125V15.4688C18.8282 15.5162 18.8246 15.5636 18.8176 15.6105L13.184 10L18.8176 4.38945C18.8246 4.43639 18.8282 4.48379 18.8281 4.53125ZM17.8516 3.55469C17.8965 3.55484 17.9414 3.55797 17.9859 3.56406L10 11.5168L2.01406 3.56406C2.0586 3.55797 2.10349 3.55484 2.14844 3.55469H17.8516ZM1.18242 15.6105C1.17536 15.5636 1.17183 15.5162 1.17188 15.4688V4.53125C1.17183 4.48379 1.17536 4.43639 1.18242 4.38945L6.81602 10L1.18242 15.6105ZM2.14844 16.4453C2.10349 16.4452 2.0586 16.442 2.01406 16.4359L7.64648 10.827L9.58672 12.759C9.69652 12.8682 9.84511 12.9296 10 12.9296C10.1549 12.9296 10.3035 12.8682 10.4133 12.759L12.3535 10.827L17.9859 16.4359C17.9414 16.442 17.8965 16.4452 17.8516 16.4453H2.14844Z" fill="black"/>
</g>
</svg>
