<svg width="19" height="19" viewBox="0 0 19 19" fill="none" xmlns="http://www.w3.org/2000/svg">
<path id="Vector" d="M17.5356 18.7574C17.6985 18.9148 17.9168 19.0019 18.1434 19C18.37 18.998 18.5867 18.9071 18.7469 18.7469C18.9071 18.5867 18.998 18.37 19 18.1434C19.0019 17.9168 18.9148 17.6985 18.7574 17.5356L17.5356 18.7574ZM13.8259 7.77707C13.8259 9.38132 13.1886 10.9199 12.0542 12.0542C10.9199 13.1886 9.38132 13.8259 7.77707 13.8259V15.5541C9.83968 15.5541 11.8178 14.7348 13.2763 13.2763C14.7348 11.8178 15.5541 9.83968 15.5541 7.77707H13.8259ZM7.77707 13.8259C6.17282 13.8259 4.63428 13.1886 3.4999 12.0542C2.36552 10.9199 1.72824 9.38132 1.72824 7.77707H0C0 9.83968 0.819368 11.8178 2.27785 13.2763C3.73634 14.7348 5.71446 15.5541 7.77707 15.5541V13.8259ZM1.72824 7.77707C1.72824 6.17282 2.36552 4.63428 3.4999 3.4999C4.63428 2.36552 6.17282 1.72824 7.77707 1.72824V0C5.71446 0 3.73634 0.819368 2.27785 2.27785C0.819368 3.73634 0 5.71446 0 7.77707H1.72824ZM7.77707 1.72824C9.38132 1.72824 10.9199 2.36552 12.0542 3.4999C13.1886 4.63428 13.8259 6.17282 13.8259 7.77707H15.5541C15.5541 5.71446 14.7348 3.73634 13.2763 2.27785C11.8178 0.819368 9.83968 0 7.77707 0V1.72824ZM11.9188 13.1407L17.5356 18.7574L18.7574 17.5356L13.1407 11.9188L11.9188 13.1407Z" fill="#ABABAB"/>
</svg>
