<svg width="18" height="18" viewBox="0 0 18 18" fill="none" xmlns="http://www.w3.org/2000/svg">
<g id="calender_11310778 1">
<g id="Group">
<path id="Vector" fill-rule="evenodd" clip-rule="evenodd" d="M1.3125 7.125C1.3125 6.81434 1.56434 6.5625 1.875 6.5625H16.125C16.4356 6.5625 16.6875 6.81434 16.6875 7.125V15C16.6875 15.7249 16.0999 16.3125 15.375 16.3125H2.625C1.90013 16.3125 1.3125 15.7249 1.3125 15V7.125ZM2.4375 7.6875V15C2.4375 15.1036 2.52144 15.1875 2.625 15.1875H15.375C15.4786 15.1875 15.5625 15.1036 15.5625 15V7.6875H2.4375Z" fill="#535353"/>
<path id="Vector_2" fill-rule="evenodd" clip-rule="evenodd" d="M2.625 3.1875C2.52145 3.1875 2.4375 3.27145 2.4375 3.375V6.5625H15.5625V3.375C15.5625 3.27144 15.4786 3.1875 15.375 3.1875H2.625ZM1.3125 3.375C1.3125 2.65013 1.90012 2.0625 2.625 2.0625H15.375C16.0999 2.0625 16.6875 2.65013 16.6875 3.375V7.125C16.6875 7.43566 16.4356 7.6875 16.125 7.6875H1.875C1.56434 7.6875 1.3125 7.43566 1.3125 7.125V3.375Z" fill="#535353"/>
<path id="Vector_3" fill-rule="evenodd" clip-rule="evenodd" d="M6 0.9375C6.31066 0.9375 6.5625 1.18934 6.5625 1.5V4.5C6.5625 4.81066 6.31066 5.0625 6 5.0625C5.68934 5.0625 5.4375 4.81066 5.4375 4.5V1.5C5.4375 1.18934 5.68934 0.9375 6 0.9375Z" fill="#535353"/>
<path id="Vector_4" fill-rule="evenodd" clip-rule="evenodd" d="M12 0.9375C12.3106 0.9375 12.5625 1.18934 12.5625 1.5V4.5C12.5625 4.81066 12.3106 5.0625 12 5.0625C11.6894 5.0625 11.4375 4.81066 11.4375 4.5V1.5C11.4375 1.18934 11.6894 0.9375 12 0.9375Z" fill="#535353"/>
<path id="Vector_5" fill-rule="evenodd" clip-rule="evenodd" d="M9.9375 12.75C9.9375 12.4394 10.1894 12.1875 10.5 12.1875H12.75C13.0607 12.1875 13.3125 12.4394 13.3125 12.75C13.3125 13.0606 13.0607 13.3125 12.75 13.3125H10.5C10.1894 13.3125 9.9375 13.0606 9.9375 12.75Z" fill="#535353"/>
<path id="Vector_6" fill-rule="evenodd" clip-rule="evenodd" d="M4.6875 12.75C4.6875 12.4394 4.93934 12.1875 5.25 12.1875H7.5C7.81065 12.1875 8.0625 12.4394 8.0625 12.75C8.0625 13.0606 7.81065 13.3125 7.5 13.3125H5.25C4.93934 13.3125 4.6875 13.0606 4.6875 12.75Z" fill="#535353"/>
<path id="Vector_7" fill-rule="evenodd" clip-rule="evenodd" d="M9.9375 9.75C9.9375 9.43935 10.1894 9.1875 10.5 9.1875H12.75C13.0607 9.1875 13.3125 9.43935 13.3125 9.75C13.3125 10.0606 13.0607 10.3125 12.75 10.3125H10.5C10.1894 10.3125 9.9375 10.0606 9.9375 9.75Z" fill="#535353"/>
<path id="Vector_8" fill-rule="evenodd" clip-rule="evenodd" d="M4.6875 9.75C4.6875 9.43935 4.93934 9.1875 5.25 9.1875H7.5C7.81065 9.1875 8.0625 9.43935 8.0625 9.75C8.0625 10.0606 7.81065 10.3125 7.5 10.3125H5.25C4.93934 10.3125 4.6875 10.0606 4.6875 9.75Z" fill="#535353"/>
</g>
</g>
</svg>
