<svg width="16" height="16" viewBox="0 0 16 16" fill="none" xmlns="http://www.w3.org/2000/svg">
<g id="Group 34685">
<path id="Vector" d="M10.0741 12.3077C9.74681 12.3077 9.48148 12.5832 9.48148 12.9231V14.5641C9.48148 14.6774 9.39304 14.7692 9.28395 14.7692H1.38272C1.27383 14.7688 1.18563 14.6772 1.18519 14.5641V1.4359C1.18563 1.32282 1.27383 1.23123 1.38272 1.23077H9.28395C9.39304 1.23077 9.48148 1.32262 9.48148 1.4359V3.07692C9.48148 3.41677 9.74681 3.69231 10.0741 3.69231C10.4013 3.69231 10.6667 3.41677 10.6667 3.07692V1.4359C10.6667 0.642872 10.0476 0 9.28395 0H1.38272C0.619259 0.000461538 0.000444444 0.643077 0 1.4359V14.5641C0.000444444 15.3569 0.619259 15.9995 1.38272 16H9.28395C10.0476 16 10.6667 15.3571 10.6667 14.5641V12.9231C10.6667 12.5832 10.4013 12.3077 10.0741 12.3077Z" fill="black"/>
<path id="Vector_2" d="M12.4824 5.47277C12.2324 5.27391 11.8454 5.28992 11.618 5.50853C11.4055 5.71278 11.4056 6.02489 11.6184 6.22897L13.0217 7.45601H5.05625C4.71832 7.45601 4.44434 7.69558 4.44434 7.99106C4.44434 8.28654 4.71832 8.52611 5.05625 8.52611H13.02L11.6184 9.75315C11.3793 9.96217 11.3793 10.301 11.6184 10.5101C11.8574 10.7191 12.245 10.7191 12.484 10.5101L14.9316 8.36987C15.1707 8.16098 15.1708 7.82221 14.9319 7.61318C14.9318 7.61309 14.9316 7.61296 14.9316 7.61296L12.4824 5.47277Z" fill="black"/>
</g>
</svg>
